<svg xmlns="http://www.w3.org/2000/svg" width="23" height="15">
  <defs>
    <linearGradient id="active" x1="0%" x2="0%" y1="100%" y2="0%">
      <stop offset="0%" stop-color="#1EF5B9"/>
      <stop offset="100%" stop-color="#55C3FF"/>
    </linearGradient>
  </defs>
  <path fill-rule="evenodd" d="M20.87 12.74a6.725 6.725 0 0 1-4.832 2.04H9.416l.127-.103a7.813 7.813 0 0 0 1.171-1.215l5.324-.02a5.43 5.43 0 0 0 3.903-1.649 5.647 5.647 0 0 0 1.615-3.981 5.649 5.649 0 0 0-1.615-3.982 5.436 5.436 0 0 0-3.903-1.648c-1.934 0-3.666 1.095-4.751 3.002a232.743 232.743 0 0 0-2.262 4.059c-.684 1.283-1.392 2.609-2.601 3.003-.182.06-.376.098-.579.114l-.241.01c-1.565 0-2.838-1.298-2.838-2.895 0-1.594 1.273-2.893 2.838-2.893.57 0 1.12.171 1.591.497l.043.03-.025.047c-.212.375-.41.729-.599 1.066l-.032.059-.053-.041a1.491 1.491 0 0 0-.925-.321c-.842 0-1.526.698-1.526 1.556 0 .859.684 1.558 1.521 1.557.154.008.29-.017.426-.062.707-.23 1.286-1.315 1.846-2.362 0 0 1.507-2.734 2.28-4.095C11.479 2.181 13.624.844 16.038.844a6.73 6.73 0 0 1 4.832 2.04 6.996 6.996 0 0 1 1.998 4.928 6.995 6.995 0 0 1-1.998 4.928zM7.729 6.115a3.87 3.87 0 0 0-4.903.531c-1.526 1.556-1.526 4.089 0 5.646a3.953 3.953 0 0 0 2.798 1.183h.002c.388 0 .768-.06 1.13-.178 1.62-.529 2.47-2.12 3.22-3.522 0 0 1.482-2.689 2.248-4.037.52-.916 1.707-2.452 3.814-2.452 1.185 0 2.299.471 3.137 1.326a4.538 4.538 0 0 1 1.299 3.2c0 1.21-.461 2.347-1.299 3.2a4.364 4.364 0 0 1-3.137 1.326h-4.546l.054-.09c.272-.452.518-.913.681-1.218l.017-.03h3.794c.835 0 1.62-.333 2.21-.935.589-.599.913-1.4.913-2.253 0-.854-.324-1.654-.913-2.254a3.073 3.073 0 0 0-2.21-.933c-1.448 0-2.299 1.118-2.679 1.785a414.836 414.836 0 0 0-2.229 4c-.783 1.464-1.853 3.47-3.974 4.162h-.001a4.91 4.91 0 0 1-1.529.241 5.256 5.256 0 0 1-3.728-1.576c-2.039-2.077-2.039-5.459 0-7.537a5.155 5.155 0 0 1 3.726-1.561h.004l.126.005a5.139 5.139 0 0 1 2.635.813l.046.03-.655 1.162-.051-.034z"/>
</svg>
