<svg width="54" height="54" viewBox="0 0 54 54" fill="none" xmlns="http://www.w3.org/2000/svg">
  <defs>
    <filter id="filter0_d_313_105" x="1.49512" y="1.50098" width="51" height="51" filterUnits="userSpaceOnUse"
            color-interpolation-filters="sRGB">
      <feFlood flood-opacity="0" result="BackgroundImageFix"/>
      <feColorMatrix in="SourceAlpha" type="matrix" values="0 0 0 0 0 0 0 0 0 0 0 0 0 0 0 0 0 0 127 0"
                     result="hardAlpha"/>
      <feOffset dy="1"/>
      <feGaussianBlur stdDeviation="1.5"/>
      <feColorMatrix type="matrix" values="0 0 0 0 0.615686 0 0 0 0 0.647059 0 0 0 0 0.705882 0 0 0 0.502 0"/>
      <feBlend mode="normal" in2="BackgroundImageFix" result="effect1_dropShadow_313_105"/>
      <feBlend mode="normal" in="SourceGraphic" in2="effect1_dropShadow_313_105" result="shape"/>
    </filter>
    <filter id="filter1_d_313_105" x="10.8" y="11.8" width="32.3999" height="32.3999" filterUnits="userSpaceOnUse"
            color-interpolation-filters="sRGB">
      <feFlood flood-opacity="0" result="BackgroundImageFix"/>
      <feColorMatrix in="SourceAlpha" type="matrix" values="0 0 0 0 0 0 0 0 0 0 0 0 0 0 0 0 0 0 127 0"
                     result="hardAlpha"/>
      <feOffset dy="2"/>
      <feGaussianBlur stdDeviation="1.5"/>
      <feColorMatrix type="matrix" values="0 0 0 0 0.282353 0 0 0 0 0.282353 0 0 0 0 0.282353 0 0 0 0.361 0"/>
      <feBlend mode="normal" in2="BackgroundImageFix" result="effect1_dropShadow_313_105"/>
      <feBlend mode="normal" in="SourceGraphic" in2="effect1_dropShadow_313_105" result="shape"/>
    </filter>
    <clipPath id="clip0_313_105">
      <rect width="17" height="17" fill="white" transform="translate(18.5 17)"/>
    </clipPath>
  </defs>
  <g filter="url(#filter0_d_313_105)">
    <path opacity="0.44"
          d="M49.4951 26.001C49.4951 13.5746 39.4215 3.50098 26.9951 3.50098C14.5687 3.50098 4.49512 13.5746 4.49512 26.001C4.49512 38.4274 14.5687 48.501 26.9951 48.501C39.4215 48.501 49.4951 38.4274 49.4951 26.001Z"
          fill="white"
          style="stroke:none"/>
  </g>
  <g
     filter="url(#filter1_d_313_105)">
    <path
      d="M39.5 26C39.5 19.0964 33.9036 13.5 27 13.5C20.0964 13.5 14.5 19.0964 14.5 26C14.5 32.9036 20.0964 38.5 27 38.5C33.9036 38.5 39.5 32.9036 39.5 26Z"
      fill="white" stroke-width="1.4"/>
  </g>
  <g
    clip-path="url(#clip0_313_105)"
  >
    <path
      d="M29.4792 20.8958C30.2583 20.8958 30.8958 20.2583 30.8958 19.4792C30.8958 18.7 30.2583 18.0625 29.4792 18.0625C28.7 18.0625 28.0625 18.7 28.0625 19.4792C28.0625 20.2583 28.7 20.8958 29.4792 20.8958ZM22.0417 25.5C20.0583 25.5 18.5 27.0583 18.5 29.0417C18.5 31.025 20.0583 32.5833 22.0417 32.5833C24.025 32.5833 25.5833 31.025 25.5833 29.0417C25.5833 27.0583 24.025 25.5 22.0417 25.5ZM22.0417 31.5208C20.6958 31.5208 19.5625 30.3875 19.5625 29.0417C19.5625 27.6958 20.6958 26.5625 22.0417 26.5625C23.3875 26.5625 24.5208 27.6958 24.5208 29.0417C24.5208 30.3875 23.3875 31.5208 22.0417 31.5208ZM26.15 24.4375L27.85 22.7375L28.4167 23.3042C29.3375 24.225 30.5417 24.7917 32.0292 24.7917V23.375C30.9667 23.375 30.1167 22.95 29.4792 22.3125L28.1333 20.9667C27.7792 20.6833 27.425 20.5417 27 20.5417C26.575 20.5417 26.2208 20.6833 26.0083 20.9667L24.025 22.95C23.7417 23.2333 23.6 23.5875 23.6 23.9417C23.6 24.3667 23.7417 24.7208 24.025 24.9333L26.2917 26.9167V30.4583H27.7083V26.0667L26.15 24.4375ZM31.9583 25.5C29.975 25.5 28.4167 27.0583 28.4167 29.0417C28.4167 31.025 29.975 32.5833 31.9583 32.5833C33.9417 32.5833 35.5 31.025 35.5 29.0417C35.5 27.0583 33.9417 25.5 31.9583 25.5ZM31.9583 31.5208C30.6125 31.5208 29.4792 30.3875 29.4792 29.0417C29.4792 27.6958 30.6125 26.5625 31.9583 26.5625C33.3042 26.5625 34.4375 27.6958 34.4375 29.0417C34.4375 30.3875 33.3042 31.5208 31.9583 31.5208Z"
      stroke="none"
      style="stroke:none"/>
  </g>
</svg>
