<svg xmlns="http://www.w3.org/2000/svg" width="30" height="35" viewBox="0 0 30 35">
    <g>
        <g transform="translate(0 .002)">
            <path d="m9 24.843-.668-.599c-.09-.08-2.22-2-4.377-4.83-1.277-1.675-2.298-3.323-3.033-4.897C-.022 12.497-.5 10.583-.5 8.828-.5 3.685 3.762-.5 9-.5s9.5 4.185 9.5 9.328c0 1.755-.478 3.67-1.422 5.69-.735 1.573-1.756 3.22-3.033 4.896-2.157 2.83-4.288 4.75-4.377 4.83l-.668.6z" style="stroke:none" transform="translate(6 5)"/>
            <path d="M9 .5C4.306.5.5 4.229.5 8.828.5 15.877 9 23.5 9 23.5s8.5-7.623 8.5-14.672C17.5 4.228 13.694.5 9 .5m0-2c5.79 0 10.5 4.633 10.5 10.328 0 3.372-1.568 7.137-4.66 11.192-2.214 2.904-4.412 4.886-4.505 4.969L9 26.187l-1.335-1.198c-.093-.083-2.291-2.065-4.505-4.969C.068 15.965-1.5 12.2-1.5 8.828-1.5 3.133 3.21-1.5 9-1.5z" style="fill:#fff;stroke:none" transform="translate(6 5)"/>
        </g>
        <path d="M6.815 2.315a4.5 4.5 0 1 1-4.5 4.5 4.5 4.5 0 0 1 4.5-4.5" transform="translate(8.185 6.806)" style="fill:#fff"/>
        <path transform="translate(5.68 5.142)" style="fill:none" d="M0 0h17.64v24.212H0z"/>
    </g>
</svg>
