<svg xmlns="http://www.w3.org/2000/svg" width="26.002" height="35.327" viewBox="0 0 26.002 35.327">
    <g data-name="Location Pin">
        <g data-name="Subtraction 10" style="fill:#24aaf2">
            <path d="m11 31.663-.783-1.042a103.535 103.535 0 0 1-5.651-7.46C.873 17.766-1 13.675-1 11-1 4.385 4.384-1 11.001-1c6.618 0 12.001 5.384 12.001 12.002 0 2.674-1.872 6.764-5.564 12.158a103.498 103.498 0 0 1-5.653 7.461L11 31.663zM11.001 7A4.006 4.006 0 0 0 7 11.002a4.003 4.003 0 0 0 4.001 3.996 4.003 4.003 0 0 0 4.001-3.996 4.006 4.006 0 0 0-4-4.002z" style="stroke:none" transform="translate(2 2)"/>
            <path d="m11.001 30 .002-.002c.11-.131 11-13.01 11-18.996C22.002 4.935 17.066 0 11 0 4.935 0 0 4.935 0 11.002c0 5.984 10.89 18.865 11 18.996l.001.002m0-24a5.007 5.007 0 0 1 5.001 5.002 5.005 5.005 0 0 1-5 4.996A5.005 5.005 0 0 1 6 11.002 5.008 5.008 0 0 1 11.001 6m-.004 27.327-1.564-2.085a104.783 104.783 0 0 1-5.692-7.516C-.122 18.083-2 13.92-2 11.002-2 3.832 3.832-2 11.001-2c7.17 0 13.001 5.833 13.001 13.002 0 2.92-1.877 7.081-5.74 12.723a104.74 104.74 0 0 1-5.694 7.519l-1.57 2.083zM11.001 8A3.005 3.005 0 0 0 8 11.002a3.002 3.002 0 0 0 6.002 0 3.005 3.005 0 0 0-3-3.002z" style="fill:#fff;stroke:none" transform="translate(2 2)"/>
        </g>
    </g>
</svg>
