<svg width="15" height="14" viewBox="0 0 15 14" fill="none" xmlns="http://www.w3.org/2000/svg">
<path d="M7.5 9.18125C7.64583 9.18125 7.76302 9.13993 7.85156 9.05729C7.9401 8.97465 7.98437 8.86527 7.98437 8.72916V7.28541H9.53125C9.67708 7.28541 9.79427 7.24166 9.88281 7.15416C9.97135 7.06666 10.0156 6.95972 10.0156 6.83333C10.0156 6.69722 9.97135 6.58784 9.88281 6.5052C9.79427 6.42257 9.67708 6.38125 9.53125 6.38125H7.98437V4.9375C7.98437 4.80138 7.9375 4.69201 7.84375 4.60937C7.75 4.52673 7.63542 4.48541 7.5 4.48541C7.35417 4.48541 7.23698 4.52673 7.14844 4.60937C7.0599 4.69201 7.01562 4.80138 7.01562 4.9375V6.38125H5.46875C5.32292 6.38125 5.20573 6.425 5.11719 6.5125C5.02865 6.6 4.98438 6.70694 4.98438 6.83333C4.98438 6.96944 5.02865 7.07881 5.11719 7.16145C5.20573 7.24409 5.32292 7.28541 5.46875 7.28541H7.01562V8.72916C7.01562 8.86527 7.0625 8.97465 7.15625 9.05729C7.25 9.13993 7.36458 9.18125 7.5 9.18125ZM1.15625 12.725V3.07083C1.15625 2.80833 1.26302 2.57743 1.47656 2.37812C1.6901 2.17882 1.9375 2.07916 2.21875 2.07916H12.7812C13.0625 2.07916 13.3099 2.17882 13.5234 2.37812C13.737 2.57743 13.8438 2.80833 13.8438 3.07083V10.5958C13.8438 10.8486 13.737 11.0771 13.5234 11.2812C13.3099 11.4854 13.0625 11.5875 12.7812 11.5875H3.65625L2.0625 13.075C1.89583 13.2306 1.70312 13.267 1.48438 13.1844C1.26562 13.1017 1.15625 12.9486 1.15625 12.725Z" />
</svg>
