<svg width="21" height="20" viewBox="0 0 21 20" fill="none" xmlns="http://www.w3.org/2000/svg">
<path fill-rule="evenodd" clip-rule="evenodd" d="M6.06711 3H14.9334C15.5244 3 16.0685 3.32173 16.3533 3.83958L17.3874 5.71967C18.0114 6.85427 17.5242 8.18397 16.5 8.73755V14.5C16.5 15.8807 15.3807 17 14 17H7C5.61929 17 4.5 15.8807 4.5 14.5V8.73729C3.47613 8.18355 2.98917 6.85409 3.6131 5.71967L4.64714 3.83958C4.93196 3.32174 5.4761 3 6.06711 3ZM5.5 8.99941V14.5C5.5 15.3284 6.17157 16 7 16H8.5V13.5C8.5 12.6716 9.17157 12 10 12H11C11.8284 12 12.5 12.6716 12.5 13.5V16H14C14.8284 16 15.5 15.3284 15.5 14.5V8.99942C15.4827 8.99981 15.4653 9 15.4478 9C14.7008 9 14.0243 8.6261 13.6207 8.0363C13.0681 9.18409 11.8957 10 10.5003 10C9.10495 10 7.93253 9.184 7.37996 8.03612C6.97631 8.62603 6.29974 9 5.55266 9C5.53504 9 5.51748 8.9998 5.5 8.99941ZM7.48055 4L7.40199 4.39278L6.72999 7.08076C6.59493 7.62101 6.10953 8 5.55266 8C4.62962 8 4.04448 7.01038 4.48931 6.20159L5.52336 4.3215C5.63242 4.1232 5.84079 4 6.06711 4L7.48055 4ZM8.3779 4.61223L8.0887 6.05826C7.78433 7.58012 8.94835 9 10.5003 9C12.0524 9 13.2164 7.58012 12.912 6.05826L12.6236 4.61649L12.4695 4L8.53096 4L8.3779 4.61223ZM14.2705 7.08076L13.5996 4.39704L13.5202 4L14.9334 4C15.1597 4 15.3681 4.1232 15.4771 4.3215L16.5112 6.20159C16.956 7.01038 16.3709 8 15.4478 8C14.891 8 14.4056 7.62101 14.2705 7.08076ZM11.5 13.5V16H9.5V13.5C9.5 13.2239 9.72386 13 10 13H11C11.2761 13 11.5 13.2239 11.5 13.5Z" fill="#212229"/>
</svg>
