<svg id="Dollar" xmlns="http://www.w3.org/2000/svg" width="31" height="17" viewBox="0 0 31 17">
  <defs>
    <style>
      .cls-1 {
        fill: #333;
      }

      .cls-2 {
        fill: #fff;
      }
    </style>
  </defs>
  <rect id="Rectangle_3228" data-name="Rectangle 3228" class="cls-1" width="31" height="17" rx="1"/>
  <circle id="Ellipse_835" data-name="Ellipse 835" class="cls-2" cx="6.5" cy="6.5" r="6.5" transform="translate(9 2)"/>
  <path id="Path_1556" data-name="Path 1556" class="cls-1" d="M3.048,2.306h.619v-.85c1.624-.1,2.55-1.02,2.55-2.255,0-1.394-1.243-1.934-2.225-2.176l-.325-.083V-5.479A1.323,1.323,0,0,1,4.985-4.364H6.111a2.34,2.34,0,0,0-2.444-2.13v-.869H3.048v.876A2.34,2.34,0,0,0,.668-4.281c0,1.077.771,1.707,2.013,2.044l.366.1V.429A1.4,1.4,0,0,1,1.631-.8H.46A2.423,2.423,0,0,0,3.048,1.46ZM3.667.425V-1.97c.793.215,1.394.491,1.394,1.16S4.491.331,3.667.425ZM3.048-3.224c-.57-.162-1.22-.461-1.216-1.126,0-.578.461-1.02,1.216-1.122Z" transform="translate(12.161 10.925)"/>
</svg>
