<svg width="31" height="17" viewBox="0 0 31 17" xmlns="http://www.w3.org/2000/svg">
<path fill-rule="evenodd" clip-rule="evenodd" d="M15.828 13.2305H15.209V12.3845C14.8905 12.4069 14.5707 12.3662 14.268 12.2646C13.9653 12.163 13.6856 12.0026 13.4451 11.7926C13.2046 11.5825 13.008 11.3271 12.8666 11.0408C12.7251 10.7545 12.6417 10.4431 12.621 10.1245H13.792C13.8342 10.4682 14.0023 10.7841 14.2639 11.0111C14.5254 11.2381 14.8617 11.3601 15.208 11.3535V8.78752L14.842 8.68752C13.6 8.35052 12.829 7.72052 12.829 6.64352C12.8635 6.03945 13.1307 5.47225 13.5744 5.06094C14.0182 4.64963 14.604 4.42619 15.209 4.43752V3.56152H15.828V4.43052C16.4315 4.40129 17.023 4.60669 17.4786 5.00372C17.9341 5.40074 18.2184 5.95861 18.272 6.56052H17.146C17.0962 6.24765 16.9358 5.96304 16.6939 5.75843C16.452 5.55381 16.1448 5.44278 15.828 5.44552V7.86652L16.153 7.94952C17.135 8.19152 18.378 8.73152 18.378 10.1255C18.378 11.3605 17.452 12.2805 15.828 12.3805V13.2305ZM15.828 8.95452V11.3495C16.652 11.2555 17.222 10.7835 17.222 10.1145C17.222 9.44552 16.621 9.16952 15.828 8.95452ZM13.993 6.57452C13.989 7.23952 14.639 7.53852 15.209 7.70052V5.45252C14.454 5.55452 13.993 5.99652 13.993 6.57452Z" />
<path fill-rule="evenodd" clip-rule="evenodd" d="M30 0H1C0.447715 0 0 0.447715 0 1V16C0 16.5523 0.447715 17 1 17H30C30.5523 17 31 16.5523 31 16V1C31 0.447715 30.5523 0 30 0ZM15.5 15C19.0899 15 22 12.0899 22 8.5C22 4.91015 19.0899 2 15.5 2C11.9101 2 9 4.91015 9 8.5C9 12.0899 11.9101 15 15.5 15Z" />
</svg>
