<svg xmlns="http://www.w3.org/2000/svg" width="15.999" height="16" viewBox="0 0 15.999 16">
    <g data-name="Component 48 – 2" style="opacity:.7">
        <rect data-name="Rectangle 3391" width="11" height="11" rx="2" transform="translate(0 5)" style="fill:#333"/>
        <path data-name="Subtraction 33" d="M7084 6082h-1v-2h1a1 1 0 0 0 1-1v-5a1 1 0 0 0-1-1h-5a1 1 0 0 0-1 1v1h-2v-1a3 3 0 0 1 3-3h5a3 3 0 0 1 3 3v5a3 3 0 0 1-3 3z" transform="translate(-7071 -6071)" style="fill:#333"/>
    </g>
</svg>
