<svg xmlns="http://www.w3.org/2000/svg" width="19" height="22" viewBox="0 0 19 22">
    <path data-name="Path 1529" d="M105.271 0A9.591 9.591 0 0 0 96 9.632v2.636a4.023 4.023 0 0 0 2.913 3.765.889.889 0 0 0 1.122-.861v-6a.89.89 0 0 0-1.127-.86 4 4 0 0 0-1.284.642 7.9 7.9 0 0 1 15.744 0 4 4 0 0 0-1.286-.644.892.892 0 0 0-1.129.862v6a.9.9 0 0 0 1.159.853 4.032 4.032 0 0 0 1.238-.619 8.364 8.364 0 0 1-4.582 4.839.863.863 0 0 0-.866-.861h-1.541a.863.863 0 0 0-.866.861v.741a1.014 1.014 0 0 0 1.124 1.01A9.485 9.485 0 0 0 115 12.6V9.455A9.489 9.489 0 0 0 105.271 0" transform="translate(-96)" style="fill:#333"/>
</svg>
