<svg xmlns="http://www.w3.org/2000/svg" width="346.777" height="304.688" viewBox="0 0 346.777 304.688">
    <path d="m275.839 159.425-226.865 8.543-41.61 43.87a5.967 5.967 0 0 0 4.215 10.088H316.26a5.965 5.965 0 0 0 4.427-9.853z" transform="translate(11.083 82.762)" style="fill:#ececec"/>
    <path d="M77.64 55.535a3.609 3.609 0 0 0-.5 1.852v55.56l-16.312 26.678H13.6z" transform="rotate(-5.13 499.659 87.779)" style="fill:#e6e6e6"/>
    <path d="M77.64 55.535a3.609 3.609 0 0 0-.5 1.852v55.56l-16.312 26.678H13.6z" transform="rotate(-5.13 499.659 87.779)" style="fill:none;stroke:#000;stroke-miterlimit:10;stroke-width:.5px"/>
    <path d="M232.542 139.59h-46.478l-17.026-26.676V57.352a3.537 3.537 0 0 0-.463-1.746z" transform="rotate(-5.13 463.876 -781.185)" style="fill:#c1c1c1"/>
    <path d="M232.542 139.59h-46.478l-17.026-26.676V57.352a3.537 3.537 0 0 0-.463-1.746z" transform="rotate(-5.13 463.876 -781.185)" style="fill:none;stroke:#000;stroke-miterlimit:10;stroke-width:.5px"/>
    <path data-name="back" d="M223.9 57.972v55.562H56.286V57.972a3.6 3.6 0 0 1 .5-1.852.035.035 0 0 0 .036-.036 2.415 2.415 0 0 1 .286-.356 3.356 3.356 0 0 1 2.742-1.319h160.484a3.445 3.445 0 0 1 2.708 1.319 1.731 1.731 0 0 1 .391.5 3.542 3.542 0 0 1 .463 1.745" transform="rotate(-5.13 483.376 -151.299)" style="fill:#d8d8d8"/>
    <path d="M223.9 57.972v55.562H56.286V57.972a3.6 3.6 0 0 1 .5-1.852.035.035 0 0 0 .036-.036 2.415 2.415 0 0 1 .286-.356 3.356 3.356 0 0 1 2.742-1.319h160.484a3.445 3.445 0 0 1 2.708 1.319 1.731 1.731 0 0 1 .391.5 3.542 3.542 0 0 1 .467 1.744z" transform="rotate(-5.13 483.376 -151.299)" style="fill:none;stroke:#000;stroke-miterlimit:10;stroke-width:.5px"/>
    <g>
        <path d="m338.122 168.24 7.672 87.832a7.12 7.12 0 0 1-6.475 7.715L16.898 291.95a7.029 7.029 0 0 1-5.693-2.148 7.885 7.885 0 0 1-.757-.898 5.98 5.98 0 0 1-.858-1.64 4.2 4.2 0 0 1-.205-.698 5.499 5.499 0 0 1-.202-1.087L1.51 197.642a4.535 4.535 0 0 1-.026-.713 14.213 14.213 0 0 1 12.98-14.717l91.274-7.973a14.214 14.214 0 0 1 13.346 6.699 54.16 54.16 0 0 0 96.843-8.46 14.214 14.214 0 0 1 11.983-8.91l94.785-8.28a14.213 14.213 0 0 1 15.332 12.244 4.537 4.537 0 0 1 .098.707"/>
        <path d="M338.213 126.273v88.186a7.121 7.121 0 0 1-7.123 7.123H7.374a7.03 7.03 0 0 1-5.485-2.636 7.887 7.887 0 0 1-.677-.96 5.982 5.982 0 0 1-.712-1.71 4.2 4.2 0 0 1-.143-.713 5.5 5.5 0 0 1-.107-1.1v-88.19a4.536 4.536 0 0 1 .036-.713A14.216 14.216 0 0 1 14.5 112.026h91.641a14.217 14.217 0 0 1 12.715 7.836 54.172 54.172 0 0 0 97.232 0 14.217 14.217 0 0 1 12.715-7.836h95.166a14.216 14.216 0 0 1 14.211 13.534 4.538 4.538 0 0 1 .033.713z" transform="rotate(-5.13 819.518 149.452)" style="fill:none;stroke:#000;stroke-miterlimit:10;stroke-width:.5px"/>
        <path d="M338.22 123.935v88.186a7.122 7.122 0 0 1-7.123 7.123H7.381a7.144 7.144 0 0 1-7.124-7.123v-88.186a7.144 7.144 0 0 1 7.124-7.123h98.746a7.017 7.017 0 0 1 6.314 3.86 61.313 61.313 0 0 0 110.033 0 7.012 7.012 0 0 1 6.314-3.858H331.1a7.122 7.122 0 0 1 7.123 7.123" transform="rotate(-5.13 846.333 148.313)" style="fill:#d7d7d7"/>
        <path data-name="front_strokes" d="M338.22 123.935v88.186a7.122 7.122 0 0 1-7.123 7.123H7.381a7.144 7.144 0 0 1-7.124-7.123v-88.186a7.144 7.144 0 0 1 7.124-7.123h98.746a7.017 7.017 0 0 1 6.314 3.86 61.313 61.313 0 0 0 110.033 0 7.012 7.012 0 0 1 6.314-3.858H331.1a7.122 7.122 0 0 1 7.12 7.121z" transform="rotate(-5.13 846.333 148.313)" style="fill:none;stroke:#000;stroke-miterlimit:10;stroke-width:.5px"/>
        <path d="M5.044 206.223v-81.065a3.561 3.561 0 0 1 3.562-3.558h93.015a3.552 3.552 0 0 1 3.127 1.914 68.446 68.446 0 0 0 120.744 0 3.552 3.552 0 0 1 3.127-1.914H325.2a3.561 3.561 0 0 1 3.562 3.562v81.065a3.562 3.562 0 0 1-3.562 3.562H8.606a3.562 3.562 0 0 1-3.562-3.562" transform="rotate(-5.13 872.045 120.38)" style="fill:#fff"/>
        <path d="M187.458 174.8H77.657a1.488 1.488 0 0 1-1.489-1.489v-12.8a1.487 1.487 0 0 1 1.489-1.489h109.8a1.488 1.488 0 0 1 1.489 1.489v12.8a1.489 1.489 0 0 1-1.489 1.489" transform="rotate(-5.13 1065.396 -286.825)" style="fill:#ececec"/>
    </g>
    <g>
        <path data-name="message" d="M190.742 9.272v37.087a9.3 9.3 0 0 1-9.272 9.272h-35.491a4.635 4.635 0 0 0-3.278 1.358l-6.617 6.617a4.668 4.668 0 0 1-6.582 0l-6.617-6.617a4.633 4.633 0 0 0-3.278-1.358H84.118a9.3 9.3 0 0 1-9.274-9.272V9.272A9.3 9.3 0 0 1 84.118 0h97.352a9.3 9.3 0 0 1 9.272 9.272" transform="rotate(7 94.968 329.016)" style="fill:#24aaf2"/>
        <path d="M105.349 21.118A7.549 7.549 0 1 1 97.8 13.57a7.549 7.549 0 0 1 7.548 7.548" transform="rotate(7 37.004 387.234)" style="fill:#fff"/>
        <path data-name="dot" d="M123.8 21.118a7.549 7.549 0 1 1-7.548-7.548 7.549 7.549 0 0 1 7.548 7.548" transform="rotate(7 32.497 460.931)" style="fill:#fff"/>
        <path data-name="dot" d="M142.253 21.118a7.549 7.549 0 1 1-7.553-7.548 7.549 7.549 0 0 1 7.548 7.548" transform="rotate(7 27.99 534.628)" style="fill:#fff"/>
    </g>
</svg>
