<svg width="40" height="28" viewBox="0 0 40 28" fill="none" xmlns="http://www.w3.org/2000/svg">
  <path d="M36.2802 27.75H3.70738C1.6615 27.75 0 26.1281 0 24.1309V3.86905C0 1.87191 1.6615 0.25 3.70738 0.25H36.2926C38.3385 0.25 40 1.87191 40 3.86905V24.1188C39.9876 26.1281 38.3385 27.75 36.2802 27.75Z" fill="#7C86A3" fill-opacity="0.1"/>
  <path fill-rule="evenodd" clip-rule="evenodd" d="M26.3605 5C27.1649 5 27.8833 5.5032 28.1582 6.25913L28.8614 8.19308C29.3376 9.50254 28.9094 10.8589 27.9767 11.6912C27.9923 11.7919 28.0004 11.895 28.0004 12V21C28.0004 22.1046 27.1049 23 26.0004 23H14.0004C12.8958 23 12.0004 22.1046 12.0004 21V12C12.0004 11.8951 12.0084 11.7922 12.024 11.6917C11.0907 10.8593 10.6621 9.50237 11.1385 8.19241L11.8415 6.25913C12.1164 5.5032 12.8348 5 13.6391 5H26.3605ZM16.3304 9.68497L16.8314 6.92963L16.9863 6L13.6391 6C13.2553 6 12.9124 6.24014 12.7813 6.60088L12.0783 8.53416C11.554 9.97577 12.6216 11.5 14.1556 11.5C15.2239 11.5 16.1393 10.736 16.3304 9.68497ZM27.0004 12.2878C26.6452 12.4244 26.2565 12.5 25.8448 12.5C24.7366 12.5 23.7417 11.9339 23.1626 11.0541C22.5837 12.1972 21.3989 13 20.0001 13C18.6015 13 17.4168 12.1974 16.8378 11.0545C16.2585 11.9341 15.2637 12.5 14.1556 12.5C13.744 12.5 13.3554 12.4244 13.0004 12.288V21C13.0004 21.5523 13.4481 22 14.0004 22H17.0004V17C17.0004 16.4477 17.4481 16 18.0004 16H22.0004C22.5526 16 23.0004 16.4477 23.0004 17V22H26.0004C26.5526 22 27.0004 21.5523 27.0004 21V12.2878ZM21.984 6.00002L22.1772 7.06243L22.5069 9.04085C22.7651 10.5899 21.5705 12 20.0001 12C18.4297 12 17.2351 10.5899 17.4933 9.04085L17.8165 7.10128L18.0168 6.00002L21.984 6.00002ZM23.1623 6.89079L23.6705 9.68538C23.8615 10.7362 24.7767 11.5 25.8448 11.5C27.3784 11.5 28.4458 9.97611 27.9216 8.53482L27.2184 6.60087C27.0872 6.24013 26.7444 6 26.3605 6L23.0139 6L23.1623 6.89079ZM22.0004 17V22H18.0004V17H22.0004Z" fill="#212229"/>
  
</svg>
