<svg viewBox="0 0 40 24" fill="none" xmlns="http://www.w3.org/2000/svg">
  <rect width="40" height="24" rx="2" ry="2" fill="#7C86A3" fill-opacity="0.1" />
  <path x="2.5" fill-rule="evenodd" clip-rule="evenodd" d="M23.3605 3C24.1649 3 24.8833 3.5032 25.1582 4.25913L25.8614 6.19308C26.3376 7.50254 25.9094 8.85894 24.9767 9.69124C24.9923 9.79188 25.0004 9.89499 25.0004 10V19C25.0004 20.1046 24.1049 21 23.0004 21H11.0004C9.89579 21 9.00036 20.1046 9.00036 19V10C9.00036 9.89514 9.00843 9.79217 9.02398 9.69167C8.09072 8.85929 7.66211 7.50237 8.13846 6.19241L8.84147 4.25913C9.11635 3.5032 9.83478 3 10.6391 3H23.3605ZM13.3304 7.68497L13.8314 4.92963L13.9863 4L10.6391 4C10.2553 4 9.91244 4.24014 9.78126 4.60088L9.07825 6.53416C8.55403 7.97577 9.62164 9.5 11.1556 9.5C12.2239 9.5 13.1393 8.73602 13.3304 7.68497ZM24.0004 10.2878C23.6452 10.4244 23.2565 10.5 22.8448 10.5C21.7366 10.5 20.7417 9.9339 20.1626 9.05413C19.5837 10.1972 18.3989 11 17.0001 11C15.6015 11 14.4168 10.1974 13.8378 9.05451C13.2585 9.93407 12.2637 10.5 11.1556 10.5C10.7439 10.5 10.3554 10.4244 10.0004 10.288V19C10.0004 19.5523 10.4481 20 11.0004 20H14.0004V15C14.0004 14.4477 14.4481 14 15.0004 14H19.0004C19.5526 14 20.0004 14.4477 20.0004 15V20H23.0004C23.5526 20 24.0004 19.5523 24.0004 19V10.2878ZM18.984 4.00002L19.1772 5.06243L19.5069 7.04085C19.7651 8.5899 18.5705 10 17.0001 10C15.4297 10 14.2351 8.5899 14.4933 7.04085L14.8165 5.10128L15.0168 4.00002L18.984 4.00002ZM20.1623 4.89079L20.6705 7.68538C20.8615 8.73619 21.7767 9.5 22.8448 9.5C24.3784 9.5 25.4458 7.97611 24.9216 6.53482L24.2184 4.60087C24.0872 4.24013 23.7444 4 23.3605 4L20.0139 4L20.1623 4.89079ZM19.0004 15V20H15.0004V15H19.0004Z" fill="#212229" /> 
</svg>
