<svg width="24" height="24" viewBox="0 0 24 24" fill="none" xmlns="http://www.w3.org/2000/svg">
<path fill-rule="evenodd" clip-rule="evenodd" d="M18.3605 3C19.1649 3 19.8833 3.5032 20.1582 4.25913L20.8614 6.19308C21.3376 7.50254 20.9094 8.85894 19.9767 9.69124C19.9923 9.79188 20.0004 9.89499 20.0004 10V19C20.0004 20.1046 19.1049 21 18.0004 21H6.00036C4.89579 21 4.00036 20.1046 4.00036 19V10C4.00036 9.89514 4.00843 9.79217 4.02398 9.69167C3.09072 8.85929 2.66211 7.50237 3.13846 6.19241L3.84147 4.25913C4.11635 3.5032 4.83478 3 5.63913 3H18.3605ZM8.33039 7.68497L8.83136 4.92963L8.9863 4L5.63913 4C5.25528 4 4.91244 4.24014 4.78126 4.60088L4.07825 6.53416C3.55403 7.97577 4.62164 9.5 6.15561 9.5C7.22388 9.5 8.13929 8.73602 8.33039 7.68497ZM19.0004 10.2878C18.6452 10.4244 18.2565 10.5 17.8448 10.5C16.7366 10.5 15.7417 9.9339 15.1626 9.05413C14.5837 10.1972 13.3989 11 12.0001 11C10.6015 11 9.41677 10.1974 8.83779 9.05451C8.2585 9.93407 7.26367 10.5 6.15561 10.5C5.74396 10.5 5.35544 10.4244 5.00036 10.288V19C5.00036 19.5523 5.44807 20 6.00036 20H9.00036V15C9.00036 14.4477 9.44807 14 10.0004 14H14.0004C14.5526 14 15.0004 14.4477 15.0004 15V20H18.0004C18.5526 20 19.0004 19.5523 19.0004 19V10.2878ZM13.984 4.00002L14.1772 5.06243L14.5069 7.04085C14.7651 8.5899 13.5705 10 12.0001 10C10.4297 10 9.23511 8.5899 9.49329 7.04085L9.81655 5.10128L10.0168 4.00002L13.984 4.00002ZM15.1623 4.89079L15.6705 7.68538C15.8615 8.73619 16.7767 9.5 17.8448 9.5C19.3784 9.5 20.4458 7.97611 19.9216 6.53482L19.2184 4.60087C19.0872 4.24013 18.7444 4 18.3605 4L15.0139 4L15.1623 4.89079ZM14.0004 15V20H10.0004V15H14.0004Z" fill="#212229"/>
</svg>