<svg width="21" height="20" viewBox="0 0 21 20" fill="none" xmlns="http://www.w3.org/2000/svg">
<path fill-rule="evenodd" clip-rule="evenodd" d="M12.7807 11.3801C14.1088 10.5977 15 9.15294 15 7.5C15 5.01472 12.9853 3 10.5 3C8.01472 3 6 5.01472 6 7.5C6 9.15294 6.8912 10.5977 8.21931 11.3801C7.37101 11.6867 6.64944 12.1679 6.07273 12.783C5.03739 13.8874 4.5 15.39 4.5 17H5.5C5.5 15.61 5.96261 14.3626 6.80227 13.467C7.63721 12.5764 8.876 12 10.5 12C12.124 12 13.3628 12.5764 14.1977 13.467C15.0374 14.3626 15.5 15.61 15.5 17H16.5C16.5 15.39 15.9626 13.8874 14.9273 12.783C14.3506 12.1679 13.629 11.6867 12.7807 11.3801ZM14 7.5C14 9.433 12.433 11 10.5 11C8.567 11 7 9.433 7 7.5C7 5.567 8.567 4 10.5 4C12.433 4 14 5.567 14 7.5Z" fill="#666975"/>
</svg>
