<svg viewBox="0 0 23 23" fill="none" xmlns="http://www.w3.org/2000/svg">
<path d="M12.9188 22.6156C10.2466 22.6156 7.98967 21.6767 6.148 19.799C4.30633 17.9212 3.3855 15.6372 3.3855 12.9469H4.92925C4.92925 15.2038 5.70112 17.1222 7.24487 18.7021C8.78862 20.2819 10.6799 21.0719 12.9188 21.0719C15.1938 21.0719 17.1213 20.2729 18.7011 18.675C20.281 17.0771 21.0709 15.1406 21.0709 12.8656C21.0709 10.6448 20.272 8.76701 18.674 7.23229C17.0761 5.69757 15.1577 4.93021 12.9188 4.93021C11.6911 4.93021 10.549 5.20556 9.49279 5.75625C8.43654 6.30694 7.52022 7.03368 6.74383 7.93646H9.53342V9.48021H4.0355V4.00938H5.57925V6.85313C6.50008 5.76979 7.59244 4.91667 8.85633 4.29375C10.1202 3.67083 11.4744 3.35938 12.9188 3.35938C14.2549 3.35938 15.5098 3.61215 16.6834 4.11771C17.857 4.62326 18.8862 5.30486 19.7709 6.1625C20.6556 7.02014 21.3553 8.03125 21.8699 9.19583C22.3845 10.3604 22.6417 11.6108 22.6417 12.9469C22.6417 14.283 22.3845 15.5378 21.8699 16.7115C21.3553 17.8851 20.6602 18.9097 19.7845 19.7854C18.9088 20.6611 17.8796 21.3517 16.697 21.8573C15.5143 22.3628 14.2549 22.6156 12.9188 22.6156Z" />
<path d="M12.5 13.2151L16.3802 17.2234L17.1875 16.3568L13.6458 12.7276V7.55469H12.5V13.2151Z"/>
</svg>
