<svg xmlns="http://www.w3.org/2000/svg" width="10.077" height="11.637" viewBox="0 0 10.077 11.637">
    <g data-name="Group 5294" style="opacity:.75">
        <path data-name="Union 55" d="M2.242-1.851a.5.5 0 0 1-.49-.4.777.777 0 0 1-.1-.248l-1.428-7.77c-.085-.411.174-.9.567-.9h1.516a.679.679 0 0 1 .778.587L4.209-4.8h5.576a.5.5 0 0 1 .5.5v1.948a.5.5 0 0 1-.5.5z" transform="translate(-.209 11.173)" style="fill:#101010"/>
        <path data-name="Path 1544" d="M.968-.5H6.7c.155 0 .281.174.281.388v1.165c0 .214-.126.388-.281.388H.968c-.155 0-.281-.174-.281-.388V-.115C.687-.329.813-.5.968-.5z" transform="translate(2.001 10.197)" style="fill:#101010"/>
    </g>
</svg>
