<svg width="30" height="52" viewBox="0 0 30 52" fill="none" xmlns="http://www.w3.org/2000/svg">
<path d="M0 0H30V52H0V0Z" fill="url(#paint0_radial_694_263424)"/>
<path d="M24 31.4501V24H26V21.4142C26 20.8838 25.7893 20.3751 25.4142 20L25 19.5858C24.7241 19.3099 24.3759 19.1229 24 19.0434V13.5711C24 11.9798 23.3679 10.4536 22.2426 9.32843L20.6716 7.75736C19.5464 6.63214 18.0202 6 16.4289 6H13.5711C11.9798 6 10.4536 6.63214 9.32843 7.75736L7.75736 9.32843C6.63214 10.4536 6 11.9798 6 13.5711V19.0434C5.62406 19.1229 5.27588 19.3099 5 19.5858L4.58579 20C4.21071 20.3751 4 20.8838 4 21.4142V24H6V31.4501L5.59375 35.5126C5.52066 36.2435 5.60951 36.9816 5.85398 37.6742L7.61511 42.6641C8.32066 44.6632 10.2101 46 12.3301 46H17.6699C19.7899 46 21.6793 44.6632 22.3849 42.6641L24.146 37.6742C24.3905 36.9816 24.4793 36.2435 24.4062 35.5126L24 31.4501Z" fill="currentColor"/>
<path fill-rule="evenodd" clip-rule="evenodd" d="M24 31.4501V24H26V21.4142C26 20.8838 25.7893 20.3751 25.4142 20L25 19.5858C24.7241 19.3099 24.3759 19.1229 24 19.0434V13.5711C24 11.9798 23.3679 10.4536 22.2426 9.32843L20.6716 7.75736C19.5464 6.63214 18.0202 6 16.4289 6H13.5711C11.9798 6 10.4536 6.63214 9.32843 7.75736L7.75736 9.32843C6.63214 10.4536 6 11.9798 6 13.5711V19.0434C5.62406 19.1229 5.27588 19.3099 5 19.5858L4.58579 20C4.21071 20.3751 4 20.8838 4 21.4142V24H6V31.4501L5.59375 35.5126C5.52066 36.2435 5.60951 36.9816 5.85398 37.6742L7.61511 42.6641C8.32066 44.6632 10.2101 46 12.3301 46H17.6699C19.7899 46 21.6793 44.6632 22.3849 42.6641L24.146 37.6742C24.3905 36.9816 24.4793 36.2435 24.4062 35.5126L24 31.4501ZM8.5581 42.3313L6.79697 37.3414C6.6014 36.7873 6.53031 36.1969 6.58879 35.6121L7 31.5V23H5V21.4142C5 21.149 5.10536 20.8946 5.29289 20.7071L5.70711 20.2929C5.89464 20.1054 6.149 20 6.41421 20H7V13.5711C7 12.245 7.52678 10.9732 8.46447 10.0355L10.0355 8.46446C10.9732 7.52678 12.245 7 13.5711 7H16.4289C17.755 7 19.0268 7.52678 19.9645 8.46447L21.5355 10.0355C22.4732 10.9732 23 12.245 23 13.5711V20H23.5858C23.851 20 24.1054 20.1054 24.2929 20.2929L24.7071 20.7071C24.8946 20.8946 25 21.149 25 21.4142V23H23V31.5L23.4112 35.6121C23.4697 36.1969 23.3986 36.7873 23.203 37.3414L21.4419 42.3313C20.8775 43.9305 19.3659 45 17.6699 45H12.3301C10.6341 45 9.12254 43.9305 8.5581 42.3313Z" fill="black" fill-opacity="0.24"/>
<path d="M20.9644 20.196L19.9918 25.5452C19.9451 25.8019 19.7088 25.9796 19.4492 25.9532L19.0531 25.9128C16.358 25.6383 13.642 25.6383 10.9469 25.9128L10.5508 25.9532C10.2912 25.9796 10.0549 25.8019 10.0082 25.5452L9.03564 20.196C9.01519 20.0836 9.08055 19.9732 9.18899 19.937C12.961 18.6797 17.039 18.6797 20.811 19.937C20.9194 19.9732 20.9848 20.0836 20.9644 20.196Z" fill="black"/>
<path d="M9.46345 40.5249L9.04503 35.0854C9.02141 34.7784 9.27823 34.5232 9.58508 34.5488L11.6782 34.7232C13.8889 34.9074 16.1111 34.9074 18.3218 34.7232L20.4149 34.5488C20.7218 34.5232 20.9786 34.7784 20.955 35.0854L20.5365 40.5249C20.5143 40.8142 20.3248 41.0637 20.0522 41.1629C16.7886 42.3496 13.2114 42.3496 9.94784 41.1629C9.67516 41.0637 9.48571 40.8142 9.46345 40.5249Z" fill="black"/>
<path d="M9.43842 28.2537L8.55317 24.7127C8.52192 24.5877 8.40962 24.5 8.28078 24.5C8.12571 24.5 8 24.6257 8 24.7808V30.2875C8 30.7607 8.05803 31.2321 8.1728 31.6912L8.49179 32.9672C8.49725 32.989 8.50508 33.0102 8.51514 33.0303C8.65403 33.3081 9.07004 33.2296 9.09816 32.9203L9.47701 28.7529C9.49223 28.5855 9.47918 28.4167 9.43842 28.2537Z" fill="black"/>
<path d="M20.5616 28.2537L21.4468 24.7127C21.4781 24.5877 21.5904 24.5 21.7192 24.5C21.8743 24.5 22 24.6257 22 24.7808V30.2875C22 30.7607 21.942 31.2321 21.8272 31.6912L21.5082 32.9672C21.5028 32.989 21.4949 33.0102 21.4849 33.0303C21.346 33.3081 20.93 33.2296 20.9018 32.9203L20.523 28.7529C20.5078 28.5855 20.5208 28.4167 20.5616 28.2537Z" fill="black"/>
<path d="M16.7181 9.5H13.2819C12.4482 9.5 11.6353 9.76049 10.9569 10.2451L10.175 10.8035C9.12386 11.5544 8.5 12.7667 8.5 14.0585V18L10.8945 17.6316C13.6155 17.213 16.3845 17.213 19.1055 17.6316L21.5 18V14.0585C21.5 12.7667 20.8761 11.5544 19.825 10.8035L19.0431 10.2451C18.3647 9.76049 17.5518 9.5 16.7181 9.5Z" fill="url(#paint1_linear_694_263424)"/>
<path d="M19.5 33L19 27.5C16.3737 26.8434 13.6263 26.8434 11 27.5L10.5 33L11.0953 33.1323C13.667 33.7038 16.333 33.7038 18.9047 33.1323L19.5 33Z" fill="url(#paint2_linear_694_263424)"/>
<path d="M13.2089 42.8209L10 42.5C10.635 43.4525 11.6529 44.0816 12.7889 44.2236L14.1419 44.3927C14.7117 44.464 15.2883 44.464 15.8581 44.3927L17.2111 44.2236C18.3471 44.0816 19.365 43.4525 20 42.5L16.7911 42.8209C15.6 42.94 14.4 42.94 13.2089 42.8209Z" fill="url(#paint3_linear_694_263424)"/>
<defs>
<radialGradient id="paint0_radial_694_263424" cx="0" cy="0" r="1" gradientUnits="userSpaceOnUse" gradientTransform="translate(15 26) rotate(90) scale(26 15)">
<stop stop-color="#212229"/>
<stop offset="0.0001" stop-color="#212229" stop-opacity="0.56"/>
<stop offset="1" stop-color="#212229" stop-opacity="0"/>
</radialGradient>
<linearGradient id="paint1_linear_694_263424" x1="15" y1="9.5" x2="15" y2="18" gradientUnits="userSpaceOnUse">
<stop stop-opacity="0"/>
<stop offset="1" stop-opacity="0.08"/>
</linearGradient>
<linearGradient id="paint2_linear_694_263424" x1="15" y1="26.5" x2="15" y2="33.5" gradientUnits="userSpaceOnUse">
<stop stop-opacity="0"/>
<stop offset="1" stop-opacity="0.08"/>
</linearGradient>
<linearGradient id="paint3_linear_694_263424" x1="15" y1="42.5" x2="15" y2="44.3667" gradientUnits="userSpaceOnUse">
<stop stop-opacity="0"/>
<stop offset="1" stop-opacity="0.08"/>
</linearGradient>
</defs>
</svg>
