<svg xmlns="http://www.w3.org/2000/svg" width="295.463" height="263.775" viewBox="0 0 295.463 263.775">
    <g data-name="Group 5557">
        <path data-name="Path 1735" d="M145.475 122.34a72.593 72.593 0 0 1-9.775 36.366L77.56 259.07a5.639 5.639 0 0 1-.451.676 5.39 5.39 0 0 1-8.873-.676L10.067 158.705A72.606 72.606 0 0 1 72.884 49.721c1.239 0 2.479 0 3.718.113a72.581 72.581 0 0 1 68.873 72.506z"/>
        <path data-name="Path 1736" d="M140.035 90.356a72.593 72.593 0 0 1-9.775 36.366L72.121 227.086a5.639 5.639 0 0 1-.451.676 6.755 6.755 0 0 1-.507-.732L12.994 126.637A72.568 72.568 0 0 1 71.163 17.85a72.581 72.581 0 0 1 68.873 72.506z" transform="translate(5.439 31.984)" style="fill:#e6e6e6"/>
        <path data-name="Path 1737" d="M68.165 227.15 10.024 126.785a72.6 72.6 0 0 1 11.493-87.717h0a72.6 72.6 0 0 1 102.647 0h0a72.6 72.6 0 0 1 11.493 87.717L77.517 227.15a5.392 5.392 0 0 1-9.324 0z" transform="translate(.043 31.92)" style="stroke-linecap:round;stroke:#000;stroke-miterlimit:10;fill:none;stroke-width:.5px"/>
        <path data-name="Path 1738" d="M295.191 38.82a38.485 38.485 0 0 1-5.183 19.324l-30.873 53.323c-.085.141-.2.282-.282.423a2.885 2.885 0 0 1-4.676-.423l-30.901-53.324A38.57 38.57 0 0 1 256.656.257a37.045 37.045 0 0 1 7.662.789 38.518 38.518 0 0 1 30.9 37.774z"/>
        <path data-name="Path 1739" d="M151.568 38.377a38.485 38.485 0 0 1-5.183 19.323l-30.873 53.323c-.085.141-.2.282-.282.423l-30.76-53.07A38.57 38.57 0 0 1 117.85.49c.958 0 1.887.028 2.845.113a38.518 38.518 0 0 1 30.9 37.774z" transform="translate(143.623 .443)" style="fill:#e6e6e6"/>
        <path data-name="Path 1740" d="M113.651 111.464 82.75 58.141a38.535 38.535 0 0 1 6.113-46.591 38.542 38.542 0 0 1 54.535 0 38.58 38.58 0 0 1 6.113 46.591l-30.9 53.323a2.857 2.857 0 0 1-4.958 0z" transform="translate(140.498 .003)" style="stroke:#000;stroke-miterlimit:10;fill:none;stroke-width:.5px"/>
        <g data-name="Group 5551">
            <path data-name="Path 1741" d="M109.663 58.6a27.667 27.667 0 0 1-4.028-.282l-.254-.056a27.23 27.23 0 0 1-22.9-26.845A27.217 27.217 0 0 1 109.663 4.23c.394 0 .732 0 1.1.028a27.144 27.144 0 0 1 18 46.45 26.816 26.816 0 0 1-19.1 7.859z" transform="translate(149.444 7.238)" style="fill:#fff"/>
            <path data-name="Path 1742" d="M259.107 12.172c.366 0 .7 0 1.042.028h.056a26.447 26.447 0 0 1 17.493 45.267 26.158 26.158 0 0 1-18.591 7.662 30.219 30.219 0 0 1-3.944-.282h-.056a26.058 26.058 0 0 1-14.591-7.352 26.452 26.452 0 0 1 18.591-45.293m0-1.408a27.886 27.886 0 0 0-19.605 47.716 27.567 27.567 0 0 0 14.9 7.662l.085.085h.535a28.4 28.4 0 0 0 4.056.31 27.885 27.885 0 0 0 1.155-55.746c-.366-.028-.761-.028-1.155-.028z"/>
        </g>
        <path data-name="Path 1743" d="M88.849 19.983a9.381 9.381 0 0 1 6.479-11.577 8.982 8.982 0 0 1 3.746-.282 9.368 9.368 0 0 1 2.056 18.084 6.341 6.341 0 0 1-.676.225 9.381 9.381 0 0 1-11.577-6.479z" transform="translate(160.371 14.161)" style="fill:#c1c1c1"/>
        <path data-name="Path 1744" d="M85.52 29.626a28.46 28.46 0 0 0 3.465 2.93 26.34 26.34 0 0 0 15.127 4.732 26.158 26.158 0 0 0 18.588-7.662 19.447 19.447 0 0 0-6.817-10.056A19.307 19.307 0 0 0 85.548 29.6z" transform="translate(154.968 27.841)" style="fill:#c1c1c1"/>
        <path data-name="Path 1745" d="M62.374 133.949a5.681 5.681 0 0 1 4.62-2.9c16.451-1.127 26.141-2 40.957-4.873 19.746-3.831 30.957-12.253 12.76-29.1-18.113-16.732-17.718-26.957-10.845-36.9 17.3-24.986 71.689-19.155 74.9-18.591s5.887 1.014 5.887 2.648c0 2.423-5.324 3.042-5.324 3.042-39.943 4.93-67.915 15.239-23.465 40.337s32.338 45.07 26.141 53.915C161.5 179.385 74.74 189.695 35.332 190.455a2.753 2.753 0 0 1-2.451-4.113l29.493-52.394z" transform="translate(58.678 73.319)" />
        <g data-name="Group 5552">
            <path data-name="Path 1746" d="M57.595 120.4a46.535 46.535 0 1 1 46.535-46.535A46.584 46.584 0 0 1 57.595 120.4z" transform="translate(19.683 49.207)" style="fill:#fff"/>
            <path data-name="Path 1747" d="M77.278 77.241a45.83 45.83 0 1 1-45.831 45.83 45.815 45.815 0 0 1 45.831-45.83m0-1.408a47.239 47.239 0 1 0 47.239 47.239 47.282 47.282 0 0 0-47.239-47.239z"/>
        </g>
        <g data-name="Group 5553" style="opacity:.3">
            <path data-name="Path 1748" d="M102.953 73.4c0 1.549-.085 3.07-.225 4.591a45.818 45.818 0 0 0-91.182 0 49.552 49.552 0 0 1-.225-4.591 45.816 45.816 0 1 1 91.633 0z" transform="translate(20.156 49.644)" style="fill:#b2b2b2"/>
        </g>
        <g data-name="Group 5554" style="opacity:.3">
            <path data-name="Path 1749" d="M135.659 30.958c0 .958-.056 1.915-.141 2.845a26.422 26.422 0 0 0-25.211-23.662h-.085a6.123 6.123 0 0 0-1.014-.056 26.462 26.462 0 0 0-26.338 23.69 23.289 23.289 0 0 1-.141-2.817 26.484 26.484 0 0 1 26.48-26.478 6.124 6.124 0 0 1 1.014.056h.085a26.425 26.425 0 0 1 25.352 26.45z" transform="translate(149.899 7.692)" style="fill:#b2b2b2"/>
        </g>
        <g data-name="Group 5556">
            <g data-name="Group 5555" style="opacity:.3">
                <path data-name="Path 1750" d="M22.66 58.075a3.688 3.688 0 0 0 1.324 2.845l10.253 8.929a3.8 3.8 0 0 0 2.7.845 3.75 3.75 0 0 0 2.535-1.324l20.7-24.676a3.718 3.718 0 0 0-5.69-4.789L36.181 61.737 28.773 55.2a3.718 3.718 0 0 0-6.113 2.845z" transform="translate(40.759 69.645)" style="fill:#b2b2b2"/>
            </g>
            <path data-name="Path 1751" d="M22.66 55.975a3.688 3.688 0 0 0 1.324 2.845l10.253 8.929a3.8 3.8 0 0 0 2.7.845 3.75 3.75 0 0 0 2.535-1.324l20.7-24.676a3.718 3.718 0 0 0-5.69-4.789L36.181 59.636 28.773 53.1a3.718 3.718 0 0 0-6.113 2.845z" transform="translate(40.759 65.83)" />
        </g>
        <path data-name="Line 285" transform="translate(77.053 82.876)" style="stroke:#b2b2b2;stroke-linejoin:bevel;stroke-linecap:round;fill:none;stroke-width:.5px" d="M0 0v5.211"/>
        <path data-name="Line 286" transform="translate(56.997 88.368)" style="stroke:#b2b2b2;stroke-linejoin:bevel;stroke-linecap:round;fill:none;stroke-width:.5px" d="m0 0 2.592 4.507"/>
        <path data-name="Line 287" transform="translate(42.349 103.157)" style="stroke:#b2b2b2;stroke-linejoin:bevel;stroke-linecap:round;fill:none;stroke-width:.5px" d="m0 0 4.535 2.592"/>
        <path data-name="Line 288" transform="translate(37.081 123.269)" style="stroke:#b2b2b2;stroke-linejoin:bevel;stroke-linecap:round;fill:none;stroke-width:.5px" d="M0 0h5.211"/>
        <path data-name="Line 289" transform="translate(42.574 140.734)" style="stroke:#b2b2b2;stroke-linejoin:bevel;stroke-linecap:round;fill:none;stroke-width:.5px" d="M0 2.62 4.507 0"/>
        <path data-name="Line 290" transform="translate(57.363 153.466)" style="stroke:#b2b2b2;stroke-linejoin:bevel;stroke-linecap:round;fill:none;stroke-width:.5px" d="M0 4.507 2.62 0"/>
        <path data-name="Line 291" transform="translate(77.503 158.057)" style="stroke:#b2b2b2;stroke-linejoin:bevel;stroke-linecap:round;fill:none;stroke-width:.5px" d="M0 5.211V0"/>
        <path data-name="Line 292" transform="translate(94.968 153.241)" style="stroke:#b2b2b2;stroke-linejoin:bevel;stroke-linecap:round;fill:none;stroke-width:.5px" d="M2.592 4.535 0 0"/>
        <path data-name="Line 293" transform="translate(107.672 140.368)" style="stroke:#b2b2b2;stroke-linejoin:bevel;stroke-linecap:round;fill:none;stroke-width:.5px" d="M4.535 2.62 0 0"/>
        <path data-name="Line 294" transform="translate(112.264 122.847)" style="stroke:#b2b2b2;stroke-linejoin:bevel;stroke-linecap:round;fill:none;stroke-width:.5px" d="M5.211 0H0"/>
        <path data-name="Line 295" transform="translate(107.475 102.763)" style="stroke:#b2b2b2;stroke-linejoin:bevel;stroke-linecap:round;fill:none;stroke-width:.5px" d="M4.507 0 0 2.62"/>
        <path data-name="Line 296" transform="translate(94.574 88.143)" style="stroke:#b2b2b2;stroke-linejoin:bevel;stroke-linecap:round;fill:none;stroke-width:.5px" d="M2.62 0 0 4.507"/>
    </g>
</svg>
