<svg xmlns="http://www.w3.org/2000/svg" width="174.139" height="67.886" viewBox="0 0 174.139 67.886">
    <g data-name="Group 5550">
        <rect data-name="Rectangle 3388" width="174.139" height="4.376" rx="2.09" transform="translate(0 63.51)" style="fill:#ececec"/>
        <path data-name="Path 1721" d="M34.5 13.69h109.4a5.356 5.356 0 0 1 5.226 4.187l7.8 34.851a3.883 3.883 0 0 1-3.788 4.733H25.253a3.879 3.879 0 0 1-3.788-4.733l7.8-34.851a5.356 5.356 0 0 1 5.226-4.187z" transform="translate(1.056 .676)" style="fill:#fff"/>
        <path data-name="Path 1722" d="m33.549 19.14 81.224.346a1.076 1.076 0 0 1 1.049 1.322l-6.537 29.122a1.089 1.089 0 0 1-1.06.85H26.791a1.092 1.092 0 0 1-1.06-1.322l6.758-29.468a1.089 1.089 0 0 1 1.06-.84z" transform="translate(1.27 .946)" style="fill:#f3f3f3"/>
        <g data-name="Group 5549">
            <path data-name="Path 1723" d="M37.312 24.53H45.8c3.7 0 5.7 2.288 5.016 5.31a6.362 6.362 0 0 1-3.766 4.36c1.962.588 3.725 2.319 2.959 5.719-.882 3.925-4.2 6.548-9.287 6.548H32.39l4.922-21.947zm4.051 17.682c2.183 0 3.411-1.081 3.788-2.781.367-1.637-.357-2.781-2.6-2.781H39.6l-1.249 5.562h3.012zm1.585-9.329a2.653 2.653 0 0 0 2.844-2.067c.294-1.3-.4-2-2.015-2h-2.4l-.913 4.082h2.5z" transform="translate(1.6 1.211)"/>
            <path data-name="Path 1724" d="m51.2 38.162 3.057-13.632h5.006L56.2 38.193c-.735 3.274 1.154 4.019 2.77 4.019s3.841-.745 4.575-4.019l3.063-13.663h5.006L68.56 38.162a10.68 10.68 0 0 1-10.61 8.626c-4.785 0-8.007-3-6.748-8.626z" transform="translate(2.516 1.212)" />
            <path data-name="Path 1725" d="m68.84 41.293 4.46-1.826a3.448 3.448 0 0 0 6.7.493c.294-1.3-.294-1.92-2.267-2.749l-1.28-.525c-2.749-1.175-5.142-2.781-4.345-6.338.85-3.8 4.638-6.118 8.532-6.118s5.814 2.351 6.37 4.67l-4.17 2.036c-.609-1.669-1.585-2.382-2.98-2.382a2.608 2.608 0 0 0-2.823 1.857c-.22.955.189 1.7 2.319 2.624l1.385.588c3.7 1.574 5.1 3.369 4.429 6.4-1.028 4.575-5.7 6.769-9.5 6.769s-6.706-2.288-6.842-5.5z" transform="translate(3.401 1.197)" />
            <path data-name="Path 1726" d="M92.334 37.973 87.15 24.53h5.667l3.043 8.87 7.021-8.867h5.667l-11.219 13.44-1.91 8.5h-5.005l1.91-8.5z" transform="translate(4.306 1.212)" />
        </g>
        <rect data-name="Rectangle 3389" width="136.948" height="5.488" rx="1.9" transform="translate(22.206 58.127)" style="stroke-linecap:round;stroke:#000;stroke-miterlimit:10;stroke-width:.5px;fill:#d8d8d8"/>
        <path data-name="Path 1727" d="M156.933 51.78c.546 1.952-1.3 3.809-3.788 3.809H25.253c-2.487 0-4.334-1.857-3.788-3.809z" transform="translate(1.056 2.558)" style="fill:#e6e6e6"/>
        <path data-name="Path 1728" d="M115.803 58.127h41.357a1.993 1.993 0 0 1 1.994 1.994v1.5a1.993 1.993 0 0 1-1.994 1.994h-41.357v-5.488z" style="fill:#333"/>
        <path data-name="Path 1729" d="M34.5 13.69h109.4a5.356 5.356 0 0 1 5.226 4.187l7.8 34.851a3.883 3.883 0 0 1-3.788 4.733H25.253a3.879 3.879 0 0 1-3.788-4.733l7.8-34.851a5.356 5.356 0 0 1 5.226-4.187z" transform="translate(1.056 .676)" style="fill:none;stroke-linecap:round;stroke:#000;stroke-miterlimit:10;stroke-width:.5px"/>
        <path data-name="Path 1730" d="M121.488 13.69h18.837a5.356 5.356 0 0 1 5.226 4.187l7.8 34.851a3.883 3.883 0 0 1-3.788 4.733h-37.32a3.879 3.879 0 0 1-3.788-4.733l7.8-34.851a5.356 5.356 0 0 1 5.226-4.187z" transform="translate(5.354 .676)" style="stroke:#000;stroke-miterlimit:10;stroke-width:.5px;fill:#f3f3f3"/>
        <path data-name="Path 1731" d="M121.48 17.15h18.931a2.011 2.011 0 0 1 1.973 1.6l7.136 32.773a2.015 2.015 0 0 1-1.973 2.445h-33.392a2.023 2.023 0 0 1-1.973-2.466l7.325-32.773a2.03 2.03 0 0 1 1.973-1.585z" transform="translate(5.541 .847)" style="fill:#d7d7d7"/>
        <path data-name="Path 1732" d="m27.488 10.228-1.081.892-6.957-6.286 3.2-2.634z" transform="translate(.961 .109)" />
        <path data-name="Path 1733" d="m32.353 9.686-1.343-.409L32.374 0l3.967 1.2z" transform="translate(1.532)" />
        <path data-name="Path 1734" d="m25.108 14.555.031 1.4-9.245 1.574-.094-4.139z" transform="translate(.781 .662)" />
    </g>
</svg>
