<svg width="5" height="14" viewBox="0 0 5 14" fill="none" xmlns="http://www.w3.org/2000/svg">
<path fill-rule="evenodd" clip-rule="evenodd" d="M2 1C2 0.447716 1.55228 0 1 0C0.447715 0 0 0.447715 0 1C0 1.55228 0.447715 2 1 2C1.55228 2 2 1.55229 2 1ZM2 13C2 12.4477 1.55228 12 1 12C0.447715 12 0 12.4477 0 13C0 13.5523 0.447715 14 1 14C1.55228 14 2 13.5523 2 13ZM1 4C1.55228 4 2 4.44772 2 5C2 5.55228 1.55228 6 1 6C0.447715 6 0 5.55228 0 5C0 4.44772 0.447715 4 1 4ZM2 9C2 8.44772 1.55228 8 1 8C0.447715 8 0 8.44771 0 9C0 9.55228 0.447715 10 1 10C1.55228 10 2 9.55229 2 9Z" fill="#ADAEBA"/>
<path fill-rule="evenodd" clip-rule="evenodd" d="M5 1C5 0.447716 4.55228 0 4 0C3.44772 0 3 0.447715 3 1C3 1.55228 3.44772 2 4 2C4.55228 2 5 1.55229 5 1ZM5 13C5 12.4477 4.55228 12 4 12C3.44772 12 3 12.4477 3 13C3 13.5523 3.44772 14 4 14C4.55228 14 5 13.5523 5 13ZM4 4C4.55228 4 5 4.44772 5 5C5 5.55228 4.55228 6 4 6C3.44772 6 3 5.55228 3 5C3 4.44772 3.44772 4 4 4ZM5 9C5 8.44772 4.55228 8 4 8C3.44772 8 3 8.44771 3 9C3 9.55228 3.44772 10 4 10C4.55228 10 5 9.55229 5 9Z" fill="#ADAEBA"/>
</svg>
