<svg data-name="N/A" xmlns="http://www.w3.org/2000/svg" width="142" height="85.251" viewBox="0 0 142 85.251">
    <defs>
        <clipPath id="hkxtlc05za">
            <path data-name="Path 1862" d="M131.551 18.24H71.612a18.021 18.021 0 0 0-12.286 4.851l-30 28.1a16.1 16.1 0 0 0-2.056 21.166l17.068 23.675a17.966 17.966 0 0 0 14.577 7.459h59.939a18.021 18.021 0 0 0 12.286-4.851l30-28.1a16.1 16.1 0 0 0 2.056-21.166L146.128 25.7a17.966 17.966 0 0 0-14.577-7.459z" transform="translate(-24.233 -18.24)" style="fill:none"/>
        </clipPath>
        <clipPath id="klhnfuc4pb">
            <path data-name="Path 1859" d="M69.32 56.028 87.256 45.61l18.065 10.43-17.936 10.419z" transform="translate(-69.32 -45.61)" style="fill:none"/>
        </clipPath>
        <clipPath id="nz1reakpxc">
            <path data-name="Path 1861" d="M69.32 55.03 87.268 44.6l18.065 10.43-17.948 10.43z" transform="translate(-69.32 -44.6)" style="fill:none"/>
        </clipPath>
    </defs>
    <g data-name="Group 5578" style="clip-path:url(#hkxtlc05za)">
        <g data-name="Group 5571">
            <path data-name="Path 1847" d="M52.548 65.425a5.6 5.6 0 0 1-4.522-2.314l-10.666-14.8c-1.116-1.55-1.257-5.755.106-7.459l17.548-13.507a5.613 5.613 0 0 1 3.841-1.527h30.621a5.6 5.6 0 0 1 4.522 2.314l10.935 12.239c.916 1.586.67 6.108-.74 7.435l-17.2 16.1a5.545 5.545 0 0 1-3.817 1.5H52.571z" style="fill: #333"/>
            <path data-name="Path 1848" d="M89.453 26.111a5.3 5.3 0 0 1 4.287 2.2l.023.023.023.023 10.877 12.169c.928 1.691.517 5.943-.681 7.071l-17.2 16.1a5.3 5.3 0 0 1-3.618 1.433H52.546a5.3 5.3 0 0 1-4.287-2.2l-10.665-14.8c-1.034-1.433-1.175-5.427.059-7.047l17.572-13.539a5.3 5.3 0 0 1 3.621-1.433h30.621m0-.587H58.846a5.872 5.872 0 0 0-4.017 1.586L37.231 40.664c-1.445 1.809-1.292 6.178-.117 7.811l10.665 14.8a5.893 5.893 0 0 0 4.767 2.443h30.621a5.872 5.872 0 0 0 4.017-1.586l17.2-16.1c1.468-1.374 1.809-6.049.763-7.846L94.221 27.967a5.893 5.893 0 0 0-4.769-2.443z" style="fill: #333"/>
        </g>
        <g data-name="Group 5572">
            <path data-name="Path 1849" d="M70.94 74.241a2.955 2.955 0 0 1-2.384-1.222L57.89 58.22a1.049 1.049 0 0 1 .141-1.4l17.2-16.1a2.894 2.894 0 0 1 2.009-.8h30.621a2.955 2.955 0 0 1 2.384 1.222l10.665 14.8a1.049 1.049 0 0 1-.141 1.4l-17.2 16.1a2.894 2.894 0 0 1-2.009.8H70.952z" transform="translate(-18.392 -14.456)" style="fill:#e6e6e6"/>
            <path data-name="Path 1850" d="m108.283 43.293 9.7 13.472-16 14.976H71.365l-9.7-13.472 16-14.976h30.621m0-5.873H77.661a5.872 5.872 0 0 0-4.017 1.586l-17.2 16.1a3.993 3.993 0 0 0-.505 5.262l10.665 14.8a5.893 5.893 0 0 0 4.769 2.443H102a5.872 5.872 0 0 0 4.017-1.586l17.2-16.1a3.993 3.993 0 0 0 .505-5.262l-10.665-14.8a5.893 5.893 0 0 0-4.769-2.443z" transform="translate(-18.83 -14.892)" style="fill:#d8d8d8"/>
            <path data-name="Path 1851" d="M89.453 23.115a5.3 5.3 0 0 1 4.287 2.2l10.665 14.793a3.429 3.429 0 0 1-.435 4.487l-17.2 16.1a5.3 5.3 0 0 1-3.618 1.433H52.535a5.3 5.3 0 0 1-4.287-2.2l-10.665-14.8a3.429 3.429 0 0 1 .435-4.487l17.2-16.1a5.3 5.3 0 0 1 3.618-1.433h30.621m0-.587H58.831a5.872 5.872 0 0 0-4.017 1.586l-17.2 16.1a3.993 3.993 0 0 0-.505 5.262l10.665 14.8a5.893 5.893 0 0 0 4.769 2.443H83.17a5.872 5.872 0 0 0 4.017-1.586l17.2-16.1a3.993 3.993 0 0 0 .505-5.262l-10.665-14.8a5.893 5.893 0 0 0-4.769-2.443z" style="fill: #333" />
        </g>
        <path data-name="Path 1852" d="M53.341 59.28h-30.61a5.872 5.872 0 0 0-4.017 1.586l-17.2 16.1a3.993 3.993 0 0 0-.505 5.262l10.665 14.8a5.893 5.893 0 0 0 4.769 2.443h30.626a5.872 5.872 0 0 0 4.017-1.586l17.2-16.1a3.993 3.993 0 0 0 .505-5.262l-10.665-14.8a5.893 5.893 0 0 0-4.769-2.443z" transform="translate(-28.42 -11.075)" style="stroke:#000;stroke-miterlimit:10;stroke-width:.5px;fill:#e6e6e6"/>
        <path data-name="Path 1853" d="M101.933 79.68H71.311a5.872 5.872 0 0 0-4.017 1.586l-17.2 16.1a3.993 3.993 0 0 0-.505 5.262l10.665 14.8a5.893 5.893 0 0 0 4.769 2.443h30.626a5.872 5.872 0 0 0 4.017-1.586l17.2-16.1a3.993 3.993 0 0 0 .505-5.262l-10.671-14.8a5.893 5.893 0 0 0-4.767-2.443z" transform="translate(-19.938 -7.514)" />
        <path data-name="Path 1854" d="M164.213 18.84h-30.622a5.872 5.872 0 0 0-4.017 1.586l-17.2 16.1a3.993 3.993 0 0 0-.505 5.262l10.665 14.8a5.893 5.893 0 0 0 4.769 2.443h30.621a5.872 5.872 0 0 0 4.017-1.586l17.2-16.1a3.993 3.993 0 0 0 .505-5.262l-10.665-14.8a5.893 5.893 0 0 0-4.769-2.443z" transform="translate(-9.065 -18.135)" />
        <path data-name="Path 1855" d="M157.483 59.38h-30.622a5.872 5.872 0 0 0-4.017 1.586l-17.2 16.1a3.993 3.993 0 0 0-.505 5.262l10.665 14.8a5.893 5.893 0 0 0 4.769 2.443H151.2a5.872 5.872 0 0 0 4.017-1.586l17.2-16.1a3.993 3.993 0 0 0 .505-5.262l-10.665-14.8a5.893 5.893 0 0 0-4.769-2.443z" transform="translate(-10.24 -11.058)" />
        <path data-name="Path 1856" d="M59.343 18.84H28.721a5.872 5.872 0 0 0-4.021 1.586l-17.2 16.1a3.993 3.993 0 0 0-.5 5.265l10.665 14.8a5.893 5.893 0 0 0 4.769 2.443h30.625a5.872 5.872 0 0 0 4.017-1.586l17.2-16.1a3.993 3.993 0 0 0 .505-5.262l-10.665-14.8a5.893 5.893 0 0 0-4.769-2.443z" transform="translate(-27.374 -18.135)" style="stroke:#000;stroke-miterlimit:10;stroke-width:.5px;fill:#e6e6e6"/>
        <path data-name="Path 1857" d="M114.6.25H83.981a5.872 5.872 0 0 0-4.017 1.586l-17.2 16.1a3.993 3.993 0 0 0-.505 5.262L72.928 38a5.893 5.893 0 0 0 4.772 2.444h30.621a5.872 5.872 0 0 0 4.017-1.586l17.2-16.1a3.993 3.993 0 0 0 .505-5.262l-10.665-14.8A5.893 5.893 0 0 0 114.6.25z" transform="translate(-17.727 -21.381)" style="stroke:#000;stroke-miterlimit:10;stroke-width:.5px;fill:#e6e6e6"/>
        <g data-name="Group 5577">
            <g data-name="Group 5574">
                <g data-name="Group 5573" style="clip-path:url(#klhnfuc4pb);fill:#333" transform="translate(52.958 32.148)">
                    <path data-name="Path 1858" d="m79.663 60.357 15.093-8.774c3.559 2.443 3.383 6.108-.576 8.41a15.539 15.539 0 0 1-7.6 1.832 15.9 15.9 0 0 1-6.918-1.468m-1.327-.763c-3.559-2.443-3.371-6.108.576-8.41a15.444 15.444 0 0 1 7.6-1.832 16.068 16.068 0 0 1 6.918 1.456l-15.105 8.774M95.5 50.361a19.833 19.833 0 0 0-18.006 0c-4.957 2.878-4.933 7.553.059 10.43a18.4 18.4 0 0 0 9.021 2.161 18.2 18.2 0 0 0 8.986-2.161c4.957-2.878 4.933-7.553-.07-10.43" transform="translate(-68.54 -45.158)" style="fill:#cbcbcb"/>
                </g>
            </g>
            <g data-name="Group 5576">
                <g data-name="Group 5575" style="clip-path:url(#nz1reakpxc);fill:#333" transform="translate(52.958 30.962)">
                    <path data-name="Path 1860" d="M9.784 14.435c-3.559-2.443-3.371-6.108.576-8.41a15.444 15.444 0 0 1 7.6-1.832 16.068 16.068 0 0 1 6.918 1.459L9.773 14.424m1.327.763 15.105-8.774c3.559 2.443 3.371 6.108-.587 8.41a15.4 15.4 0 0 1-7.588 1.821 16.03 16.03 0 0 1-6.918-1.456m15.857-9.984a18.481 18.481 0 0 0-9.007-2.162 18.275 18.275 0 0 0-9 2.161c-4.957 2.878-4.933 7.553.059 10.43a18.4 18.4 0 0 0 9.021 2.161 18.2 18.2 0 0 0 8.986-2.161c4.957-2.878 4.933-7.553-.059-10.43"/>
                </g>
            </g>
        </g>
    </g>
</svg>
