<svg xmlns="http://www.w3.org/2000/svg" viewBox="0 0 365.24 290.563">
    <g data-name="Group 5623">
        <g data-name="Group 5618">
            <path data-name="Path 1927" d="m63.86 100.147-2.26-.565V99.3z" transform="translate(109.297 177.987)" style="fill:#efefef"/>
        </g>
        <g data-name="Group 5619">
            <path data-name="Path 1928" d="m35.8 84.287-17.516 5.084-8.475-3.107L3.595 84c-.565-.282-.847-.565-1.13-.565a.277.277 0 0 1-.282-.282.277.277 0 0 0-.282-.282c0-.282 0-.282.282-.565v-.565a1.468 1.468 0 0 1 1.13-.565L19.978 74.4z" transform="translate(.36 132.551)" style="fill:#efefef"/>
            <path data-name="Path 1929" d="m57.5 79.127-32.485 9.6L9.2 78.562l6.779-2.542v-.282L46.2 71.5z" transform="translate(13.681 127.259)" style="fill:#efefef"/>
            <path data-name="Path 1930" d="M69.812 81.224 52.3 86.308l-12.712-8.474L13.6 81.789 49.757 67.1z" transform="translate(21.71 119.23)" style="fill:#efefef"/>
            <path data-name="Path 1931" d="m59.13 77.648 9.322 6.5-17.231 5.082L30.6 73.976l8.757-3.39 38.7-9.887 12.429 8.474z" transform="translate(52.73 107.552)" style="fill:#efefef"/>
            <path data-name="Path 1932" d="m50.88 80.971-2.542.847L28 67.412 30.825 66z" transform="translate(47.986 117.223)" style="fill:#efefef"/>
            <path data-name="Path 1933" d="m120.093 120.716 20.056 27.118zM13.6 74.672 39.87 71z" transform="translate(21.71 126.347)" style="fill:none"/>
            <path data-name="Path 1934" d="m113.81 95.8-8.192 3.39-40.394 8.474-2.825-1.13z" transform="translate(110.757 171.601)" style="fill:#fff"/>
            <path data-name="Path 1935" d="m117.9 65.43-25.705 6.779-1.695-1.13 24.858-6.779z" transform="translate(162.033 114.121)" style="fill:#fff"/>
            <path data-name="Path 1936" d="m342.615 113.25-2.542-.847-59.885 17.231-13.559-9.322 52.823-15.254-4.52-1.695-51.41 14.971-48.3-31.92 30.79-8.474-4.52-1.695-29.377 8.192-35.878-23.445 13.841-3.39-4.52-1.695-12.711 3.107L160.7 52.8l-4.237 1.695 11.3 5.649-67.794 16.949-18.361 7.344 38.7-9.887 12.429 8.474L101.1 91.5l9.322 7.062-17.232 5.083-20.621-15.253-4.52 1.695 20.056 14.689-2.542.847L65.225 91.5l-4.52 1.695 19.773 14.124-17.513 5.081-12.711-8.474-26.27 3.955-5.084 1.979 30.225-4.52 11.3 7.627-32.485 9.6-15.82-9.882-2.542 1.13 15.535 9.885L7.6 128.786l2.825.847 71.749-21.186L94.32 117.2 28.5 136.413l4.52 1.695 39.264-11.3 22.036 19.774-21.751 5.649 2.542.847 22.033-5.932 18.926-1.13 5.367 7.344-27.683 6.5 2.542.847 2.26.847 24.858-5.932 6.5 9.322-13.276 3.39 2.542.847 11.581-2.825 6.5 9.039h-.565l9.6 3.39-17.8-24.858 2.542-.565 20.062 27.117 9.039 3.39-8.757-11.581 111.86-22.88 4.8 3.107 2.542-1.13-19.491-12.995 25.988-6.5 15.536 10.734 4.237-1.695-14.689-10.169zm-83.895 6.214-22.6 9.322-23.728-13.559-59.037 15.254-8.474-11.864-19.208-7.344L210.7 87.544zm-25.14 10.452-21.751 9.039-47.456 7.062-10.173-14.124 57.347-14.693zM207.027 85.85l-33.05 9.039-21.185-14.971 33.332-7.909zm-101.408 6.5 31.637-8.474-14.124-9.6 48.021-12.146 13.559 8.757-36.157 8.474L156.747 85l-43.5 12.711zm52.54-5.932 13.276 9.322-64.4 17.8-12.146-9.039zm-70.9 20.621 2.542-.565 11.864 8.757-2.26.282zm10.169 38.982-22.6-20.056 21.751-6.214 18.361 25.423zm29.66 6.214-24.858-34.462.565-.282 1.13-.282 25.423 34.179zm-17.8-36.439 13.276-3.672 19.208 7.062 19.494 27.114-25.988 3.955zm136.718 22.033 15.254 10.169-110.73 23.163-13.839-18.361 78.528-11.864 46.608-19.208 12.994 9.039z" transform="translate(10.761 93.136)" style="fill:#fff"/>
            <path data-name="Path 1937" d="m50.206 80.457-2.26.565L35.8 72.547l2.542-.847z" transform="translate(62.219 127.624)" style="fill:#efefef"/>
            <path data-name="Path 1938" d="M175.136 78.437c0 .565-.565 1.13-1.695 1.412l-6.214 2.542-47.738 19.491L104.8 91.713 165.532 74.2l7.909 2.825c.565.282.847.565 1.412.565l.282.282.001.565z" transform="translate(188.127 132.186)" style="fill:#efefef"/>
            <path data-name="Path 1939" d="m172.743 78.544-59.884 17.231L99.3 86.454 152.123 71.2l17.231 6.214z" transform="translate(178.09 126.712)" style="fill:#efefef"/>
            <path data-name="Path 1940" d="m114.951 74.022-64.4 17.8L38.4 83.061 101.957 64.7z" transform="translate(66.963 114.851)" style="fill:#d7d7d7"/>
            <path data-name="Path 1941" d="m182.811 96.837-22.6 9.322L136.485 92.6l-59.32 15.254-8.474-11.864L49.2 88.928 134.225 65.2z" transform="translate(86.671 115.763)" style="fill:#d7d7d7"/>
            <path data-name="Path 1942" d="m138.875 88.311-21.751 9.039-47.456 7.062L59.5 90.289 116.56 75.6z" transform="translate(105.465 134.741)" style="fill:#d7d7d7"/>
            <path data-name="Path 1943" d="m135.224 91.534-22.033 8.757L93.7 87.3l25.988-6.5z" transform="translate(167.872 144.229)" style="fill:#efefef"/>
            <path data-name="Path 1944" d="m72.816 115.718-4.52-1.695L50.5 89.165l2.26-.565z" transform="translate(89.043 158.462)" style="fill:#efefef"/>
            <path data-name="Path 1945" d="m103.794 97-26.27 10.734a12.621 12.621 0 0 1-7.909 0l-6.214-2.26z" transform="translate(112.582 173.79)" style="fill:#efefef"/>
            <path data-name="Path 1946" d="m174.7 90.107-53.953 21.751-51.41 10.734-2.26-.847-8.477-11.582L170.178 87z" transform="translate(103.823 155.543)" style="fill:#efefef"/>
            <path data-name="Path 1947" d="m65.461 102.139-.565.282-7.909-3.107-9.887-3.389L58.681 93.1z" transform="translate(82.839 166.674)" style="fill:#efefef"/>
            <path data-name="Path 1948" d="m162.618 93.3 15.254 10.452-110.731 23.164L53.3 108.272l78.528-11.864L178.719 77.2l12.994 9.039z" transform="translate(94.152 137.66)" style="fill:#efefef"/>
            <path data-name="Path 1949" d="m68.218 109.879-2.26.565L41.1 75.982h.565l1.13-.282z" transform="translate(71.89 134.923)" style="fill:#efefef"/>
            <path data-name="Path 1950" d="m95.293 108.262-25.988 3.955L43.6 77.472 56.594 73.8 75.8 81.144z" transform="translate(76.452 131.456)" style="fill:#d7d7d7"/>
            <path data-name="Path 1951" d="m71.337 98.622-13.276 3.107L39.7 95.232 64.558 89.3z" transform="translate(69.335 159.74)" style="fill:#efefef"/>
            <path data-name="Path 1952" d="m77.826 93.144-27.683 6.78h-.282L31.5 93.144l22.033-5.932L72.459 85.8z" transform="translate(54.373 153.353)" style="fill:#efefef"/>
            <path data-name="Path 1953" d="m77.9 98.956-21.751 5.649L16.6 90.481 55.864 78.9z" transform="translate(27.184 140.762)" style="fill:#efefef"/>
            <path data-name="Path 1954" d="m71.611 101.823-17.8 1.13L31.5 82.614 53.251 76.4z" transform="translate(54.373 136.2)" style="fill:#efefef"/>
            <path data-name="Path 1955" d="m92.777 81.257-66.1 19.208-13.84-5.085L8.6 93.686 80.349 72.5z" transform="translate(12.586 129.084)" style="fill:#efefef"/>
            <path data-name="Path 1956" d="M180.814 86.84 129.4 101.529 81.1 70.174l30.79-8.474 20.621 7.344-24.858 6.779 1.695 1.13 25.705-6.779z" transform="translate(144.88 109.377)" style="fill:#efefef"/>
            <path data-name="Path 1957" d="m132.552 73.143-29.377 8.192L67.3 57.89l13.841-3.39 28.53 10.169z" transform="translate(119.699 96.238)" style="fill:#efefef"/>
            <path data-name="Path 1958" d="M113.235 73.259 80.186 82.3 59 67.327 92.332 59.7z" transform="translate(104.553 105.727)" style="fill:#efefef"/>
            <path data-name="Path 1959" d="m84.954 73.431 8.192 5.65-43.219 12.428-7.627-5.367 31.355-8.192-14.124-9.6 48.021-12.15 13.559 8.757z" transform="translate(74.08 99.341)" style="fill:#efefef"/>
            <path data-name="Path 1960" d="M86.658 57.413 73.946 60.52 61.8 54.305l3.955-1.695a12.621 12.621 0 0 1 7.909 0z" transform="translate(109.662 91.631)" style="fill:#efefef"/>
            <path data-name="Path 1961" d="M107.994 59.149 40.2 76.1l56.495-22.6z" transform="translate(70.248 94.414)" style="fill:#efefef"/>
        </g>
        <g data-name="Group 5622">
            <g data-name="Group 5621">
                <g data-name="Group 5620">
                    <path data-name="Path 1962" d="M365.24 210.623c0-.847-.847-1.412-2.26-1.977l-144.062-52.541-33.9-12.429a17.413 17.413 0 0 0-10.734 0l-21.184 8.475-6.779 2.825L2.26 213.165C.848 213.73 0 214.577 0 215.142v7.909c0 .847.847 1.412 2.26 1.977l177.959 64.687a17.413 17.413 0 0 0 10.734 0L362.7 220.51c1.412-.565 2.26-1.412 2.26-1.977zm-3.672-1.412c.565.282.847.565 1.412.565l.282.282v.565c0 .565-.565 1.13-1.695 1.412l-6.214 2.542-47.738 19.491-4.52 1.977-22.033 8.757-2.542 1.13-54.235 21.751-7.909 3.107-26.27 10.739a12.621 12.621 0 0 1-7.909 0l-6.214-2.26-2.825-.847-2.258-.853-9.039-3.39-4.52-1.695-9.6-3.39-7.909-2.825-9.887-3.672-2.542-.847-18.078-6.5-2.26-1.13-2.542-.847-18.643-6.779-2.542-1.13-39.554-14.403-4.52-1.412-13.841-5.085-4.237-1.695-2.542-.847-8.474-3.107-6.214-2.26c-.565-.282-.847-.565-1.13-.565a.277.277 0 0 1-.282-.282l-.284-.279c0-.282 0-.282.282-.565v-.565a1.468 1.468 0 0 1 1.13-.565l171.745-69.21a12.621 12.621 0 0 1 7.909 0zm-31.355-11.3" style="fill:#000000"/>
                </g>
            </g>
        </g>
    </g>
    <g data-name="Group 5625">
        <g data-name="Group 5624">
            <path data-name="Path 1963" d="M255.357 73.062a70.755 70.755 0 0 1-9.887 36.439l-58.192 100.561a.608.608 0 0 1-.565.565 5.562 5.562 0 0 1-9.039-.565l-57.905-100.565A72.421 72.421 0 0 1 182.478.462h3.672a72.457 72.457 0 0 1 69.206 72.6z" style="fill:#000000"/>
            <path data-name="Path 1964" d="M180.044 73.9a70.755 70.755 0 0 1-9.887 36.439L111.968 210.9a.608.608 0 0 1-.565.565c-.282-.282-.282-.565-.565-.847l-58.19-100.283A72.807 72.807 0 0 1 111.121 1.3a72.482 72.482 0 0 1 68.924 72.6z" transform="translate(75.313 -.838)" style="fill:#e6e6e6"/>
            <path data-name="Path 1965" d="m108.081 211.033-58.19-100.561a72.606 72.606 0 0 1 11.3-87.85h0a72.8 72.8 0 0 1 103.1 0h0a72.712 72.712 0 0 1 11.581 87.85L117.4 211.033a5.321 5.321 0 0 1-9.319 0z" transform="translate(69.878 -.975)" style="stroke:#000;stroke-linecap:round;stroke-miterlimit:10;stroke-width:.5px;fill:none"/>
        </g>
        <path data-name="Path 1966" d="M97.043 11a46.043 46.043 0 1 0 46.043 46.043A46.051 46.051 0 0 0 97.043 11zM62.581 57.043A34.719 34.719 0 0 1 97.326 22.3a31.558 31.558 0 0 1 13.559 2.825L76.14 84.443a34.659 34.659 0 0 1-13.559-27.4zm34.462 34.462a34.636 34.636 0 0 1-11.016-1.695l33.9-58.755a34.518 34.518 0 0 1 11.581 25.988c.28 18.926-15.256 34.462-34.465 34.462z" transform="translate(89.955 16.862)" />
    </g>
</svg>
