<svg xmlns="http://www.w3.org/2000/svg" viewBox="0 0 12.134 14">
    <g data-name="Group 5245">
        <path data-name="Path 1534" d="M2.5 0A2.5 2.5 0 1 1 0 2.5 2.5 2.5 0 0 1 2.5 0z" transform="translate(7.133)"/>
        <path data-name="Path 1535" d="M2.5 0A2.5 2.5 0 1 1 0 2.5 2.5 2.5 0 0 1 2.5 0z" transform="translate(0 4.5)"/>
        <path data-name="Path 1536" d="M2.5 0A2.5 2.5 0 1 1 0 2.5 2.5 2.5 0 0 1 2.5 0z" transform="translate(7.133 9)"/>
        <path data-name="Line 252" d="m6.922 5.424-7.187-5 .476-.848 7.187 5z" transform="translate(2.5 6.5)" />
        <path data-name="Line 253" d="m.211 5.424-.476-.848 7.187-5L7.4.424z" transform="translate(2.5 2.5)" />
    </g>
</svg>
