<svg width="16" height="18" viewBox="0 0 16 18" fill="none" xmlns="http://www.w3.org/2000/svg">
<path d="M9 14V6H10V14H9Z" fill="#212229"/>
<path d="M6 6V14H7V6H6Z" fill="#212229"/>
<path fill-rule="evenodd" clip-rule="evenodd" d="M5 2C5 0.895431 5.89543 0 7 0H9C10.1046 0 11 0.895431 11 2H16V3H14.9375L14.1172 16.1248C14.0513 17.1788 13.1772 18 12.1211 18H3.8789C2.82278 18 1.94868 17.1788 1.8828 16.1248L1.0625 3H0V2H5ZM6 2C6 1.44772 6.44772 1 7 1H9C9.55228 1 10 1.44772 10 2H6ZM2.06445 3L2.88085 16.0624C2.91379 16.5894 3.35084 17 3.8789 17H12.1211C12.6492 17 13.0862 16.5894 13.1192 16.0624L13.9355 3H2.06445Z" fill="#212229"/>
</svg>
